<svg width="24" height="24" viewBox="0 0 24 24" fill="none" xmlns="http://www.w3.org/2000/svg">
<path d="M11.9995 2C7.31251 2 3.49951 5.813 3.49951 10.5C3.49951 12.518 4.22401 14.4765 5.54601 16.024C5.69701 16.1955 9.25951 20.2435 10.4495 21.378C10.884 21.7925 11.4415 22 11.9995 22C12.5575 22 13.115 21.7925 13.55 21.378C14.9335 20.0585 18.312 16.1855 18.46 16.0155C19.775 14.4765 20.4995 12.518 20.4995 10.5C20.4995 5.813 16.6865 2 11.9995 2ZM11.9995 13C10.619 13 9.49951 11.8805 9.49951 10.5C9.49951 9.1195 10.619 8 11.9995 8C13.38 8 14.4995 9.1195 14.4995 10.5C14.4995 11.8805 13.38 13 11.9995 13Z" fill="#413F40"/>
</svg>
